# xmcd CD database file
#
# Track frame offsets:
#	150
#	20561
#	40813
#	61871
#	83494
#	106871
#	129898
#	149078
#	169958
#	188593
#	210993
#	234514
#	245006
#	278619
#
# Disc length: 4094 seconds
#
# Revision: 0
# Processed by: cddbd v1.5.2PL0 Copyright (c) Steve Scherf et al.
# Submitted via: CDex 1.70beta2
#
DISCID=b60ffc0e
DTITLE=Jose Alberto - Tributo a Celia Cruz
DYEAR=2008
DGENRE=Salsa
TTITLE0=La Calle
TTITLE1=Aqui Cada Uno
TTITLE2=Mueve Tu Cintura
TTITLE3=Baila Que Baila
TTITLE4=A La Hora Que Me Llamen Voy
TTITLE5=Bailemos Otra Vez
TTITLE6=Como Ellas Son
TTITLE7=Disculpeme Senora
TTITLE8=La Critica
TTITLE9=Luna De Miel
TTITLE10=Libertango
TTITLE11=Milonga De Mis Amores
TTITLE12=La Cacharra
TTITLE13=Bonus Track: Libertango
EXTD=YEAR: 2008
EXTT0=
EXTT1=
EXTT2=
EXTT3=
EXTT4=
EXTT5=
EXTT6=
EXTT7=
EXTT8=
EXTT9=
EXTT10=
EXTT11=
EXTT12=
EXTT13=
PLAYORDER=
